DBRep_DrawableShape

CASCADE Topology V1, (c) Matra-Datavision
Locations 5
1
              1               0               0               0 
              0               1               0               0 
              0               0               1               0 
1
              1               0               0               0 
              0               1               0               0 
              0               0               1               0 
1
              1               0 2.22044604925031e-16 4.31408307542741e-32 
              0               1               0 -2.52435489670724e-29 
-2.22044604925031e-16               0               1 9.86076131526265e-32 
1
              1               0               0            6000 
              0               1               0               0 
              0               0               1               0 
2  3 1 4 1 0
Curve2ds 4
1 -100 2000 0 -1 
1 -100 -2000 1 0 
1 100 -2000 0 1 
1 100 2000 -1 0 
Curves 9
1 0 0 0 1 0 0 
1 -2.2204460492503131e-14 -2000 -100 1 0 0 
1 -2.2204460492503131e-14 2000 -100 1 0 0 
1 0 -2000 -100 0 1 0 
1 2.2204460492503131e-14 2000 100 1 0 0 
1 0 2000 -100 0 0 1 
1 2.2204460492503131e-14 -2000 100 1 0 0 
1 0 2000 100 0 -1 0 
1 0 -2000 100 0 0 -1 
Polygon3D 0
PolygonOnTriangulations 0
Surfaces 5
1 -2.2204460492503131e-14 -2000 -100 0 0 1 0 1 0 -1 0 0 
1 0 0 0 1 0 0 -0 0 1 0 -1 0 
1 -2.2204460492503131e-14 2000 -100 0 -1 0 2.2204460492503131e-16 0 1 -1 0 2.2204460492503131e-16 
1 2.2204460492503131e-14 2000 100 0 0 -1 0 -1 0 -1 -0 -0 
1 2.2204460492503131e-14 -2000 100 -0 1 0 -2.2204460492503131e-16 0 -1 -1 -0 2.2204460492503131e-16 
Triangulations 0

TShapes 29
Ve
1e-07
0 0 0
0 0

0101101
*
Ve
1e-07
5000 0 0
0 0

0101101
*
Ed
 1e-07 1 1 0
1  1 0 0 5000
0

0101000
+29 0 -28 0 *
Wi

0101000
+27 0 *
Ve
1e-07
0 -2000 -100
0 0

0101101
*
Ed
 1e-07 1 1 0
1  2 0 0 6000
0

0101000
+25 3 -25 5 *
Ve
1e-07
0 2000 -100
0 0

0101101
*
Ed
 1e-07 1 1 0
1  3 0 0 6000
0

0101000
+23 3 -23 5 *
Ed
 1e-07 1 1 0
1  4 0 0 4000
2  1 2 0 0 4000
0

0101000
+25 0 -23 0 *
Wi

0101100
+24 0 -22 0 -21 3 +21 5 *
Fa
0  1e-07 1 0

0101000
+20 0 *
Ve
1e-07
0 2000 100
0 0

0101101
*
Ed
 1e-07 1 1 0
1  5 0 0 6000
0

0101000
+18 3 -18 5 *
Ed
 1e-07 1 1 0
1  6 0 0 200
2  2 2 0 0 200
0

0101000
+23 0 -18 0 *
Wi

0101100
+22 0 -17 0 -16 3 +16 5 *
Fa
0  1e-07 3 0

0101000
+15 0 *
Ve
1e-07
0 -2000 100
0 0

0101101
*
Ed
 1e-07 1 1 0
1  7 0 0 6000
0

0101000
+13 3 -13 5 *
Ed
 1e-07 1 1 0
1  8 0 0 4000
2  3 2 0 0 4000
0

0101000
+18 0 -13 0 *
Wi

0101100
+17 0 -12 0 -11 3 +11 5 *
Fa
0  1e-07 4 0

0101000
+10 0 *
Ed
 1e-07 1 1 0
1  9 0 0 200
2  4 2 0 0 200
0

0101000
+13 0 -25 0 *
Wi

0101100
+12 0 -24 0 -8 3 +8 5 *
Fa
0  1e-07 5 0

0101000
+7 0 *
Wi

0101100
+21 0 +16 0 +11 0 +8 0 *
Fa
0  1e-07 2 0

0101000
+5 0 *
Sh

0101100
+19 0 +14 0 +9 0 +6 0 +4 3 -4 5 *
So

0100000
-3 0 *
Co

1100000
+26 1 +2 2 *

+1 0 